<svg width="12" height="13" viewBox="0 0 12 13" fill="none" xmlns="http://www.w3.org/2000/svg">
<mask id="path-1-outside-1_148_10522" maskUnits="userSpaceOnUse" x="-0.269043" y="-0.400024" width="13" height="13" fill="black">
<rect fill="white" x="-0.269043" y="-0.400024" width="13" height="13"/>
<path fill-rule="evenodd" clip-rule="evenodd" d="M4.63128 0.599976H10.6942C11.226 0.599976 11.6515 1.00918 11.6515 1.5207V7.35192C11.6515 7.86344 11.2127 8.27264 10.6942 8.27264H8.72174V10.9493C8.72174 11.4608 8.28298 11.87 7.76444 11.87H1.68826C1.15642 11.87 0.730957 11.448 0.730957 10.9493V5.10527C0.730957 4.59376 1.15642 4.18456 1.68826 4.18456H7.75115C8.28298 4.18456 8.70845 4.59376 8.72174 5.10527V7.50538H10.6942C10.774 7.50538 10.8404 7.44144 10.8404 7.36471V1.5207C10.8404 1.44397 10.774 1.38003 10.6942 1.38003H4.61798C4.53821 1.38003 4.47173 1.44397 4.47173 1.5207V3.99998H3.67398V1.5207C3.67398 1.00918 4.09945 0.599976 4.63128 0.599976ZM7.76444 11.0771C7.84422 11.0771 7.9107 11.0132 7.9107 10.9365V5.10527C7.9107 5.02855 7.84422 4.96461 7.76444 4.96461H1.68826C1.60848 4.96461 1.542 5.02855 1.542 5.10527V10.9365C1.542 11.0132 1.60848 11.0771 1.68826 11.0771H7.76444Z"/>
</mask>
<path fill-rule="evenodd" clip-rule="evenodd" d="M4.63128 0.599976H10.6942C11.226 0.599976 11.6515 1.00918 11.6515 1.5207V7.35192C11.6515 7.86344 11.2127 8.27264 10.6942 8.27264H8.72174V10.9493C8.72174 11.4608 8.28298 11.87 7.76444 11.87H1.68826C1.15642 11.87 0.730957 11.448 0.730957 10.9493V5.10527C0.730957 4.59376 1.15642 4.18456 1.68826 4.18456H7.75115C8.28298 4.18456 8.70845 4.59376 8.72174 5.10527V7.50538H10.6942C10.774 7.50538 10.8404 7.44144 10.8404 7.36471V1.5207C10.8404 1.44397 10.774 1.38003 10.6942 1.38003H4.61798C4.53821 1.38003 4.47173 1.44397 4.47173 1.5207V3.99998H3.67398V1.5207C3.67398 1.00918 4.09945 0.599976 4.63128 0.599976ZM7.76444 11.0771C7.84422 11.0771 7.9107 11.0132 7.9107 10.9365V5.10527C7.9107 5.02855 7.84422 4.96461 7.76444 4.96461H1.68826C1.60848 4.96461 1.542 5.02855 1.542 5.10527V10.9365C1.542 11.0132 1.60848 11.0771 1.68826 11.0771H7.76444Z" fill="black"/>
<path d="M8.72174 8.27264V8.07264H8.52174V8.27264H8.72174ZM8.72174 5.10527H8.92181L8.92168 5.10008L8.72174 5.10527ZM8.72174 7.50538H8.52174V7.70538H8.72174V7.50538ZM4.47173 3.99998V4.19998H4.67173V3.99998H4.47173ZM3.67398 3.99998H3.47398V4.19998H3.67398V3.99998ZM10.6942 0.399976H4.63128V0.799976H10.6942V0.399976ZM11.8515 1.5207C11.8515 0.891455 11.3291 0.399976 10.6942 0.399976V0.799976C11.123 0.799976 11.4515 1.12691 11.4515 1.5207H11.8515ZM11.8515 7.35192V1.5207H11.4515V7.35192H11.8515ZM10.6942 8.47264C11.3139 8.47264 11.8515 7.98293 11.8515 7.35192H11.4515C11.4515 7.74394 11.1115 8.07264 10.6942 8.07264V8.47264ZM8.72174 8.47264H10.6942V8.07264H8.72174V8.47264ZM8.92174 10.9493V8.27264H8.52174V10.9493H8.92174ZM7.76444 12.07C8.38418 12.07 8.92174 11.5803 8.92174 10.9493H8.52174C8.52174 11.3413 8.18178 11.67 7.76444 11.67V12.07ZM1.68826 12.07H7.76444V11.67H1.68826V12.07ZM0.530957 10.9493C0.530957 11.5639 1.05155 12.07 1.68826 12.07V11.67C1.2613 11.67 0.930957 11.332 0.930957 10.9493H0.530957ZM0.530957 5.10527V10.9493H0.930957V5.10527H0.530957ZM1.68826 3.98456C1.05338 3.98456 0.530957 4.47603 0.530957 5.10527H0.930957C0.930957 4.71149 1.25946 4.38456 1.68826 4.38456V3.98456ZM7.75115 3.98456H1.68826V4.38456H7.75115V3.98456ZM8.92168 5.10008C8.90545 4.476 8.3872 3.98456 7.75115 3.98456V4.38456C8.17877 4.38456 8.51144 4.71152 8.52181 5.11047L8.92168 5.10008ZM8.92174 7.50538V5.10527H8.52174V7.50538H8.92174ZM10.6942 7.30538H8.72174V7.70538H10.6942V7.30538ZM10.6404 7.36471C10.6404 7.34392 10.6495 7.32837 10.6586 7.31967C10.6676 7.31102 10.6801 7.30538 10.6942 7.30538V7.70538C10.877 7.70538 11.0404 7.55917 11.0404 7.36471H10.6404ZM10.6404 1.5207V7.36471H11.0404V1.5207H10.6404ZM10.6942 1.58003C10.6801 1.58003 10.6676 1.57439 10.6586 1.56574C10.6495 1.55704 10.6404 1.54149 10.6404 1.5207H11.0404C11.0404 1.32624 10.877 1.18003 10.6942 1.18003V1.58003ZM4.61798 1.58003H10.6942V1.18003H4.61798V1.58003ZM4.67173 1.5207C4.67173 1.54149 4.66263 1.55704 4.65358 1.56574C4.64459 1.57439 4.63207 1.58003 4.61798 1.58003V1.18003C4.43517 1.18003 4.27173 1.32624 4.27173 1.5207H4.67173ZM4.67173 3.99998V1.5207H4.27173V3.99998H4.67173ZM3.67398 4.19998H4.47173V3.79998H3.67398V4.19998ZM3.47398 1.5207V3.99998H3.87398V1.5207H3.47398ZM4.63128 0.399976C3.99641 0.399976 3.47398 0.891455 3.47398 1.5207H3.87398C3.87398 1.12691 4.20249 0.799976 4.63128 0.799976V0.399976ZM7.7107 10.9365C7.7107 10.9157 7.7198 10.9001 7.72885 10.8914C7.73784 10.8828 7.75036 10.8771 7.76444 10.8771V11.2771C7.94726 11.2771 8.1107 11.1309 8.1107 10.9365H7.7107ZM7.7107 5.10527V10.9365H8.1107V5.10527H7.7107ZM7.76444 5.16461C7.75036 5.16461 7.73784 5.15896 7.72885 5.15032C7.7198 5.14162 7.7107 5.12606 7.7107 5.10527H8.1107C8.1107 4.91082 7.94726 4.76461 7.76444 4.76461V5.16461ZM1.68826 5.16461H7.76444V4.76461H1.68826V5.16461ZM1.742 5.10527C1.742 5.12606 1.7329 5.14162 1.72385 5.15032C1.71486 5.15896 1.70234 5.16461 1.68826 5.16461V4.76461C1.50544 4.76461 1.342 4.91082 1.342 5.10527H1.742ZM1.742 10.9365V5.10527H1.342V10.9365H1.742ZM1.68826 10.8771C1.70234 10.8771 1.71486 10.8828 1.72385 10.8914C1.7329 10.9001 1.742 10.9157 1.742 10.9365H1.342C1.342 11.1309 1.50544 11.2771 1.68826 11.2771V10.8771ZM7.76444 10.8771H1.68826V11.2771H7.76444V10.8771Z" fill="black" mask="url(#path-1-outside-1_148_10522)"/>
</svg>
