<svg width="9" height="10" viewBox="0 0 9 10" fill="none" xmlns="http://www.w3.org/2000/svg">
<path fill-rule="evenodd" clip-rule="evenodd" d="M7.87548 0C8.35886 0 8.75071 0.393946 8.75071 0.879903C8.75071 0.906579 8.74953 0.932977 8.74722 0.959049V1.07464C8.75411 1.13827 8.75411 1.20251 8.74722 1.26614V5.27614C8.74722 5.76179 8.35559 6.15549 7.8725 6.15549C7.42391 6.15549 7.05419 5.81602 7.00366 5.37869L6.99778 5.27614V3.29882L1.49413 8.8318C1.15232 9.17543 0.598153 9.17543 0.256351 8.8318C-0.0591587 8.51461 -0.0834274 8.0155 0.183542 7.67032L0.256351 7.58743L6.05308 1.75981H3.49934C3.01596 1.75981 2.62411 1.36586 2.62411 0.879903C2.62411 0.428657 2.96198 0.0567478 3.39727 0.00592014L3.49934 0H7.8725H7.87548Z" fill="black"/>
</svg>
